<?xml version="1.0" standalone="no"?>
<!DOCTYPE svg PUBLIC "-//W3C//DTD SVG 20010904//EN"
 "http://www.w3.org/TR/2001/REC-SVG-20010904/DTD/svg10.dtd">
<svg version="1.0" xmlns="http://www.w3.org/2000/svg"
 width="512.000000pt" height="512.000000pt" viewBox="0 0 512.000000 512.000000"
 preserveAspectRatio="xMidYMid meet">
<metadata>
Created by potrace 1.14, written by Peter Selinger 2001-2017
</metadata>
<g transform="translate(0.000000,512.000000) scale(0.100000,-0.100000)"
fill="#000000" stroke="none">
<path d="M120 2560 l0 -1160 210 0 210 0 0 1160 0 1160 -210 0 -210 0 0 -1160z"/>
<path d="M1474 3244 l-470 -474 -147 0 -147 0 0 -210 0 -210 148 0 147 0 473
-475 473 -475 296 0 296 0 -19 21 c-20 23 -145 145 -285 281 -76 73 -356 345
-758 736 l-126 123 120 116 c66 64 239 232 385 374 146 141 308 299 360 349
178 173 320 313 320 317 0 1 -134 3 -297 2 l-298 -1 -471 -474z"/>
<path d="M3215 3700 c-94 -21 -127 -32 -175 -56 -179 -90 -307 -262 -346 -464
-12 -66 -11 -224 3 -298 34 -182 133 -328 284 -423 74 -47 119 -65 218 -89 78
-18 124 -19 605 -20 287 -1 539 -3 561 -6 159 -21 248 -182 199 -356 -21 -72
-82 -137 -146 -156 -13 -3 -399 -8 -858 -9 -459 -2 -840 -5 -846 -7 -8 -3 -12
-66 -13 -210 l-2 -206 848 0 c806 1 852 2 932 21 143 33 281 114 365 212 97
114 147 258 151 434 7 299 -127 518 -388 638 -138 63 -157 65 -753 65 -493 1
-543 3 -592 19 -97 33 -151 110 -156 223 -6 132 55 242 150 268 68 19 24 18
812 19 l723 1 -1 210 -1 210 -747 -1 c-680 -1 -754 -3 -827 -19z"/>
</g>
</svg>
